<svg width="56" height="56" viewBox="0 0 56 56" fill="none" xmlns="http://www.w3.org/2000/svg">
<g clip-path="url(#clip0_112_223)">
<path d="M53.3227 2.6775H56.0002V29.3475H53.3227V2.6775ZM50.6627 34.6675H48.0027V37.345H53.3227V29.3475H50.6627V34.6675ZM45.3252 32.0075H48.0027V34.6675H45.3252V32.0075ZM42.6651 21.3325H50.6627V24.01H42.6651V21.3325ZM42.6651 16.0125H50.6627V18.6725H42.6651V16.0125ZM45.3252 10.675H50.6627V13.335H45.3252V10.675ZM37.3277 5.3375H50.6627V8.015H37.3277V5.3375ZM42.6651 29.3475H45.3252V32.0075H42.6651V29.3475ZM40.0052 26.67V18.6725H37.3277V45.3425H40.0052V29.3475H42.6651V26.67H40.0052ZM21.3327 10.675H42.6651V13.335H21.3327V10.675ZM26.6702 45.3425H37.3277V48.0025H26.6702V45.3425ZM26.6702 5.3375H34.6677V8.015H26.6702V5.3375ZM7.99766 24.01V40.005H31.9902V24.01H7.99766ZM29.3302 29.3475H26.6702V32.0075H23.9927V34.6675H15.9952V32.0075H13.3352V29.3475H10.6577V26.67H13.3352V29.3475H15.9952V32.0075H23.9927V29.3475H26.6702V26.67H29.3302V29.3475ZM23.9927 53.34H21.3327V56H26.6702V48.0025H23.9927V53.34ZM21.3327 5.3375H23.9927V8.015H21.3327V5.3375ZM18.6552 0H53.3227V2.6775H18.6552V0ZM18.6552 50.68H21.3327V53.34H18.6552V50.68ZM15.9952 48.0025H18.6552V50.68H15.9952V48.0025ZM2.66016 45.3425H15.9952V48.0025H2.66016V45.3425Z" fill="#B4B4B4"/>
<path d="M37.3275 18.6727V16.0127H18.655V2.67773H15.995V16.0127H2.66V18.6727H37.3275ZM0 18.6727H2.66V45.3427H0V18.6727Z" fill="#B4B4B4"/>
</g>
<defs>
<clipPath id="clip0_112_223">
<rect width="56" height="56" fill="white"/>
</clipPath>
</defs>
</svg>
