<svg width="56" height="56" viewBox="0 0 56 56" fill="none" xmlns="http://www.w3.org/2000/svg">
<path fill-rule="evenodd" clip-rule="evenodd" d="M51.3327 27.9993C51.3327 15.1123 40.8863 4.66602 27.9993 4.66602C15.1123 4.66602 4.66602 15.1123 4.66602 27.9993C4.66602 40.8863 15.1123 51.3327 27.9993 51.3327C40.8863 51.3327 51.3327 40.8863 51.3327 27.9993ZM27.9993 14.5827C28.4635 14.5827 28.9086 14.7671 29.2368 15.0952C29.565 15.4234 29.7493 15.8686 29.7493 16.3327V30.3327C29.7493 30.7968 29.565 31.2419 29.2368 31.5701C28.9086 31.8983 28.4635 32.0827 27.9993 32.0827C27.5352 32.0827 27.0901 31.8983 26.7619 31.5701C26.4337 31.2419 26.2493 30.7968 26.2493 30.3327V16.3327C26.2493 15.8686 26.4337 15.4234 26.7619 15.0952C27.0901 14.7671 27.5352 14.5827 27.9993 14.5827ZM27.9993 39.666C28.6182 39.666 29.2117 39.4202 29.6493 38.9826C30.0868 38.545 30.3327 37.9515 30.3327 37.3327C30.3327 36.7138 30.0868 36.1204 29.6493 35.6828C29.2117 35.2452 28.6182 34.9993 27.9993 34.9993C27.3805 34.9993 26.787 35.2452 26.3494 35.6828C25.9118 36.1204 25.666 36.7138 25.666 37.3327C25.666 37.9515 25.9118 38.545 26.3494 38.9826C26.787 39.4202 27.3805 39.666 27.9993 39.666Z" fill="#CA2626"/>
</svg>
