<svg width="32" height="32" viewBox="0 0 32 32" fill="none" xmlns="http://www.w3.org/2000/svg">
<path fill-rule="evenodd" clip-rule="evenodd" d="M29.3327 15.9993C29.3327 8.63535 23.3633 2.66602 15.9993 2.66602C8.63535 2.66602 2.66602 8.63535 2.66602 15.9993C2.66602 23.3633 8.63535 29.3327 15.9993 29.3327C23.3633 29.3327 29.3327 23.3633 29.3327 15.9993ZM15.9993 8.33268C16.2646 8.33268 16.5189 8.43804 16.7065 8.62558C16.894 8.81311 16.9993 9.06747 16.9993 9.33268V17.3327C16.9993 17.5979 16.894 17.8523 16.7065 18.0398C16.5189 18.2273 16.2646 18.3327 15.9993 18.3327C15.7341 18.3327 15.4798 18.2273 15.2922 18.0398C15.1047 17.8523 14.9993 17.5979 14.9993 17.3327V9.33268C14.9993 9.06747 15.1047 8.81311 15.2922 8.62558C15.4798 8.43804 15.7341 8.33268 15.9993 8.33268ZM15.9993 22.666C16.353 22.666 16.6921 22.5255 16.9422 22.2755C17.1922 22.0254 17.3327 21.6863 17.3327 21.3327C17.3327 20.9791 17.1922 20.6399 16.9422 20.3899C16.6921 20.1398 16.353 19.9993 15.9993 19.9993C15.6457 19.9993 15.3066 20.1398 15.0565 20.3899C14.8065 20.6399 14.666 20.9791 14.666 21.3327C14.666 21.6863 14.8065 22.0254 15.0565 22.2755C15.3066 22.5255 15.6457 22.666 15.9993 22.666Z" fill="#CA2626"/>
</svg>
