<svg width="56" height="56" viewBox="0 0 56 56" fill="none" xmlns="http://www.w3.org/2000/svg">
<path d="M53.6668 20.9997V34.9997H51.3335V39.6663H49.0002V44.333H46.6668V46.6663H44.3335V48.9997H42.0002V51.333H37.3335V53.6663H35.0002V41.9997H32.6668V39.6663H35.0002V37.333H39.6668V34.9997H42.0002V32.6663H44.3335V20.9997H42.0002V13.9997H37.3335V16.333H35.0002V18.6663H32.6668V16.333H23.3335V18.6663H21.0002V16.333H18.6668V13.9997H14.0002V20.9997H11.6668V32.6663H14.0002V34.9997H16.3335V37.333H21.0002V41.9997H16.3335V39.6663H14.0002V37.333H9.3335V39.6663H11.6668V44.333H14.0002V46.6663H21.0002V53.6663H18.6668V51.333H14.0002V48.9997H11.6668V46.6663H9.3335V44.333H7.00016V39.6663H4.66683V34.9997H2.3335V20.9997H4.66683V16.333H7.00016V11.6663H9.3335V9.33301H11.6668V6.99967H16.3335V4.66634H21.0002V2.33301H35.0002V4.66634H39.6668V6.99967H44.3335V9.33301H46.6668V11.6663H49.0002V16.333H51.3335V20.9997H53.6668Z" fill="#0C0C0C"/>
</svg>
