<svg width="56" height="56" viewBox="0 0 56 56" fill="none" xmlns="http://www.w3.org/2000/svg">
<path d="M53.6673 21.0007V35.0006H51.334V39.6673H49.0006V44.334H46.6673V46.6673H44.334V49.0006H42.0006V51.334H37.334V53.6673H35.0006V42.0006H32.6673V39.6673H35.0006V37.334H39.6673V35.0006H42.0006V32.6673H44.334V21.0007H42.0006V14.0007H37.334V16.334H35.0006V18.6673H32.6673V16.334H23.334V18.6673H21.0007V16.334H18.6673V14.0007H14.0007V21.0007H11.6673V32.6673H14.0007V35.0006H16.334V37.334H21.0007V42.0006H16.334V39.6673H14.0007V37.334H9.33398V39.6673H11.6673V44.334H14.0007V46.6673H21.0007V53.6673H18.6673V51.334H14.0007V49.0006H11.6673V46.6673H9.33398V44.334H7.00065V39.6673H4.66732V35.0006H2.33398V21.0007H4.66732V16.334H7.00065V11.6673H9.33398V9.33398H11.6673V7.00065H16.334V4.66732H21.0007V2.33398H35.0006V4.66732H39.6673V7.00065H44.334V9.33398H46.6673V11.6673H49.0006V16.334H51.334V21.0007H53.6673Z" fill="#B4B4B4"/>
</svg>
