<svg width="56" height="56" viewBox="0 0 56 56" fill="none" xmlns="http://www.w3.org/2000/svg">
<g clip-path="url(#clip0_112_221)">
<path d="M53.3225 5.3375H56V50.6625H53.3225V5.3375ZM50.6625 50.6625H53.3225V53.34H50.6625V50.6625ZM50.6625 2.66H53.3225V5.3375H50.6625V2.66ZM47.985 7.9975H50.6625V48.0025H47.985V7.9975ZM5.32 53.34H50.6625V56H5.32V53.34ZM7.9975 48.0025H47.985V50.6625H7.9975V48.0025ZM39.9875 26.67H37.3275V23.9925H31.99V26.67H29.33V23.9925H23.9925V40.005H29.33V32.0075H31.99V29.33H34.6675V32.0075H37.3275V40.005H42.665V29.33H39.9875V26.67ZM13.3175 23.9925H18.655V40.005H13.3175V23.9925ZM13.3175 15.995H18.655V21.3325H13.3175V15.995ZM7.9975 5.3375H47.985V7.9975H7.9975V5.3375ZM5.32 0H50.6625V2.66H5.32V0ZM5.32 7.9975H7.9975V48.0025H5.32V7.9975ZM2.66 50.6625H5.32V53.34H2.66V50.6625ZM2.66 2.66H5.32V5.3375H2.66V2.66ZM0 5.3375H2.66V50.6625H0V5.3375Z" fill="#B4B4B4"/>
</g>
<defs>
<clipPath id="clip0_112_221">
<rect width="56" height="56" fill="white"/>
</clipPath>
</defs>
</svg>
