<svg width="96" height="96" viewBox="0 0 96 96" fill="none" xmlns="http://www.w3.org/2000/svg">
<path d="M6.57031 0.75L14.1116 85.4122L47.9501 94.8472L81.8831 85.3777L89.4303 0.75H6.57031ZM73.7636 20.1465L71.2533 48.3502L71.2608 48.5025L71.2503 48.8527V48.8497L69.4668 68.5702L69.2703 70.3222L48.0003 76.2052L47.9838 76.2202L26.7506 70.3042L25.3128 54H35.7251L36.4638 62.2905L48.0033 65.418L48.0003 65.424V65.4225L59.5826 62.2507L60.8066 48.75H36.5943L36.3866 46.4677L35.9133 41.121L35.6651 38.25H61.7268L62.6748 27.75H22.9803L22.7726 25.4692L22.3001 20.121L22.0511 17.25H74.0118L73.7636 20.1465Z" fill="#D5D5D5"/>
</svg>
