<svg width="96" height="96" viewBox="0 0 96 96" fill="none" xmlns="http://www.w3.org/2000/svg">
<g clip-path="url(#clip0_224_93)">
<path d="M93.5528 43.784L52.2158 2.44846C49.8368 0.067961 45.9758 0.067961 43.593 2.44846L35.01 11.033L45.8985 21.9215C48.4298 21.0672 51.3308 21.6402 53.3475 23.657C55.3748 25.6865 55.9433 28.6122 55.068 31.1517L65.562 41.6465C68.1008 40.7712 71.031 41.3367 73.0575 43.3677C75.8925 46.2005 75.8925 50.7927 73.0575 53.627C72.3838 54.301 71.5839 54.8357 70.7035 55.2005C69.8231 55.5653 68.8794 55.7531 67.9264 55.7531C66.9734 55.7531 66.0297 55.5653 65.1493 55.2005C64.2689 54.8357 63.469 54.301 62.7953 53.627C61.7831 52.6141 61.0931 51.3245 60.8121 49.9204C60.5312 48.5163 60.6719 47.0605 61.2165 45.7362L51.4305 35.9502L51.429 61.706C52.139 62.0556 52.7873 62.5187 53.3483 63.077C56.1818 65.9097 56.1818 70.5005 53.3483 73.3392C50.514 76.172 45.9203 76.172 43.089 73.3392C40.2555 70.5012 40.2555 65.9105 43.089 63.077C43.7679 62.397 44.5753 61.8591 45.4643 61.4945V35.5002C44.5746 35.1366 43.7669 34.5982 43.089 33.917C40.9425 31.772 40.4258 28.622 41.5268 25.985L30.792 15.2502L2.44801 43.5927C1.3045 44.7366 0.662109 46.2878 0.662109 47.9052C0.662109 49.5226 1.3045 51.0738 2.44801 52.2177L43.7858 93.5532C46.1663 95.9337 50.0258 95.9337 52.41 93.5532L93.5535 52.4097C94.6968 51.2655 95.3389 49.7142 95.3388 48.0967C95.3386 46.4792 94.6962 44.928 93.5528 43.784Z" fill="#D5D5D5"/>
</g>
<defs>
<clipPath id="clip0_224_93">
<rect width="96" height="96" fill="white"/>
</clipPath>
</defs>
</svg>
