<svg width="96" height="96" viewBox="0 0 96 96" fill="none" xmlns="http://www.w3.org/2000/svg">
<path d="M1.5 0.625V94.375H95.25V0.625H1.5ZM51.0893 80.5098C49.7055 83.3215 47.064 85.1688 44.0033 86.0605C39.3 87.1405 34.8015 86.5248 31.455 84.5163C29.2155 83.1423 27.4665 81.0273 26.2793 78.5905L33.4192 74.218C33.4815 74.2443 33.669 74.5832 33.9195 75.0212C34.83 76.5467 35.6152 77.6268 37.1587 78.385C38.6752 78.9025 42.0045 79.2332 43.29 76.5647C44.0753 75.2072 43.8255 70.8438 43.8255 66.016C43.8247 58.4298 43.86 50.875 43.86 43.375H52.6418C52.6418 51.625 52.6868 59.4385 52.6418 67.489C52.6605 72.424 53.0888 76.8235 51.0893 80.5098ZM87.5198 78.0288C84.4673 88.4703 67.4482 88.8092 60.6472 81.9107C59.2102 80.287 58.3095 79.4387 57.4522 77.5645C61.0665 75.4855 61.0665 75.4855 64.5833 73.4507C66.4935 76.387 68.2598 78.0018 71.4375 78.6625C75.7485 79.189 80.0858 77.7077 79.113 73.129C78.1133 69.3895 70.2855 68.4797 64.9583 64.4807C59.55 60.8485 58.2825 52.0225 62.727 46.9795C64.2083 45.1142 66.7343 43.7222 69.3848 43.0532L72.1507 42.6955C77.4615 42.5883 80.781 43.9908 83.2178 46.7118C83.8958 47.3988 84.4492 48.1398 85.4842 49.7455C82.6552 51.5485 82.6643 51.5313 78.612 54.1548C77.7465 52.2903 76.3102 51.1203 74.7922 50.6118C72.4357 49.8978 69.4642 50.674 68.8477 53.164C68.634 53.9313 68.6783 54.6453 69.018 55.9128C69.9728 58.09 73.1768 59.0365 76.0508 60.3572C84.324 63.7127 87.1177 67.3105 87.8047 71.593C88.4662 75.28 87.645 77.6718 87.5198 78.0288Z" fill="#D5D5D5"/>
</svg>
