<svg width="96" height="96" viewBox="0 0 96 96" fill="none" xmlns="http://www.w3.org/2000/svg">
<path d="M48.2709 0.00398719C47.4872 0.00398719 46.7027 0.206562 46.0007 0.613362L8.63567 22.1759L48.8582 95.9609C49.4423 95.885 50.0147 95.6954 50.5412 95.3925L88.1687 73.665C89.0762 73.1396 89.7542 72.3248 90.1239 71.3783L48.7014 0.0307622C48.5583 0.0171197 48.4158 0.00292969 48.2722 0.00292969L48.2709 0.00398719ZM49.6959 0.244212L76.4334 46.2867L89.0784 23.0217C88.8086 22.7566 88.5061 22.5218 88.1702 22.3274L50.5427 0.614862C50.2729 0.458487 49.9883 0.342012 49.6989 0.245712L49.6959 0.244212ZM7.99592 22.5867C6.82142 23.4365 6.10742 24.7985 6.10742 26.2617V69.7242C6.10742 70.6932 6.42197 71.615 6.96992 72.377L21.4899 47.342L7.98992 22.5845L7.99592 22.5867ZM89.5959 23.6427L76.8684 47.0502L90.3909 70.3452C90.4189 70.1415 90.4349 69.936 90.4349 69.7271V26.2646C90.4349 25.3083 90.1276 24.3986 89.5926 23.6426L89.5959 23.6427ZM21.9084 48.1152L7.48592 72.9777C7.75127 73.2357 8.0467 73.4672 8.37542 73.6574L45.9954 95.3849C46.6213 95.744 47.3102 95.9336 48.0069 95.9738L21.9144 48.1088L21.9084 48.1152Z" fill="#FF4B00"/>
</svg>
