<svg width="96" height="96" viewBox="0 0 96 96" fill="none" xmlns="http://www.w3.org/2000/svg">
<path d="M28.4738 5.20018C26.8838 5.25418 25.3687 5.64118 24 6.43018C21.264 8.00968 19.6305 10.9077 18.8962 14.3374C18.1628 17.7679 18.24 21.8472 18.9713 26.4124C19.2533 28.1727 19.6658 30.0237 20.1427 31.9159C18.2655 32.4484 16.4558 33.0184 14.7908 33.6544C10.4708 35.3044 6.90075 37.2769 4.29675 39.6282C1.692 41.9787 0 44.8407 0 47.9997C0 51.1587 1.692 54.0222 4.29675 56.3727C6.9 58.7247 10.47 60.6972 14.79 62.3472C16.455 62.9832 18.2648 63.5517 20.142 64.0849C19.665 65.9772 19.2525 67.8282 18.9705 69.5877C18.2393 74.1552 18.1635 78.2329 18.897 81.6627C19.632 85.0939 21.2633 87.9912 23.9993 89.5707C26.7353 91.1502 30.0592 91.1157 33.3975 90.0357C36.735 88.9557 40.23 86.8504 43.8187 83.9337C45.2017 82.8102 46.599 81.5292 48 80.1687C49.3995 81.5292 50.7975 82.8102 52.1805 83.9337C55.7685 86.8512 59.262 88.9564 62.6003 90.0364C65.9378 91.1164 69.264 91.1502 72 89.5714C74.736 87.9912 76.3695 85.0939 77.1038 81.6634C77.8372 78.2329 77.7585 74.1544 77.0273 69.5884C76.7453 67.8282 76.3343 65.9772 75.8572 64.0849C77.7345 63.5524 79.5443 62.9824 81.2093 62.3472C85.5293 60.6979 89.0993 58.7247 91.7033 56.3734C94.308 54.0222 96 51.1587 96 47.9997C96 44.8407 94.308 41.9787 91.7033 39.6282C89.0993 37.2777 85.5293 35.3037 81.2093 33.6544C79.5443 33.0192 77.736 32.4484 75.8587 31.9159C76.3357 30.0237 76.7467 28.1719 77.0287 26.4124C77.76 21.8472 77.8358 17.7679 77.1022 14.3374C76.3688 10.9062 74.7367 8.00968 72 6.43018C69.264 4.85143 65.94 4.88518 62.6018 5.96518C59.2643 7.04518 55.7692 9.15118 52.1805 12.0672C50.7975 13.1922 49.398 14.4732 47.9977 15.8337C46.5975 14.4739 45.2002 13.1914 43.8172 12.0672C40.23 9.15118 36.738 7.04368 33.4005 5.96368C31.731 5.42368 30.0645 5.14618 28.473 5.19868L28.4738 5.20018ZM28.6658 9.35893C29.6632 9.33043 30.8062 9.51418 32.1157 9.93643C34.7332 10.7839 37.872 12.6139 41.1855 15.3064C42.462 16.3429 43.7677 17.5429 45.0833 18.8239C42.3353 21.7939 39.6097 25.1712 36.9728 28.8994C32.4255 29.3194 28.1378 29.9914 24.1905 30.8869C23.7405 29.1064 23.3535 27.3769 23.0933 25.7517C22.4183 21.5367 22.4032 17.9029 22.9792 15.2119C23.5545 12.5217 24.6308 10.8867 26.0872 10.0459C26.8155 9.62593 27.6683 9.38593 28.6658 9.35893ZM67.335 9.35893C68.3325 9.38668 69.1852 9.62518 69.9135 10.0459C71.37 10.8859 72.4463 12.5209 73.0215 15.2112C73.5975 17.9014 73.584 21.5359 72.909 25.7517C72.6488 27.3754 72.2625 29.1072 71.8118 30.8862C67.8652 29.9914 63.5768 29.3187 59.028 28.8994C56.391 25.1719 53.664 21.7939 50.916 18.8232C52.2315 17.5429 53.5387 16.3422 54.8152 15.3057C58.1287 12.6117 61.2675 10.7847 63.8857 9.93718C65.1945 9.51418 66.3382 9.33118 67.3357 9.35968L67.335 9.35893ZM48 21.8262C49.9641 23.9689 51.8261 26.2028 53.58 28.5207C51.747 28.4382 49.8923 28.3827 48 28.3827C46.1085 28.3827 44.2537 28.4374 42.42 28.5207C44.1739 26.2028 46.0359 23.9688 48 21.8262ZM48 32.5572C50.9888 32.5572 53.9025 32.6749 56.7255 32.8872C58.3673 35.2913 59.9181 37.7563 61.3747 40.2769C62.8295 42.7992 64.189 45.3753 65.4502 47.9997C64.1889 50.6235 62.8294 53.1991 61.3747 55.7209C59.9178 58.2423 58.3667 60.708 56.7248 63.1129C53.9025 63.3252 50.9888 63.4437 48.0007 63.4437C45.0881 63.4429 42.1766 63.3328 39.2722 63.1137C37.631 60.7085 36.0806 58.2425 34.6245 55.7209C33.1698 53.1996 31.8103 50.6246 30.549 48.0012C31.8108 45.3768 33.1708 42.8007 34.626 40.2784C36.083 37.7574 37.634 35.2919 39.276 32.8872C42.1791 32.6681 45.0886 32.558 48 32.5572ZM33.9202 33.4294C32.9144 34.9948 31.9442 36.5827 31.0103 38.1919C30.0834 39.8051 29.1931 41.439 28.3402 43.0924C27.2094 40.4147 26.2053 37.6851 25.3313 34.9129C28.0238 34.3129 30.8903 33.8104 33.9202 33.4294ZM62.0805 33.4294C64.9652 33.7889 67.8314 34.2839 70.6695 34.9129C69.7955 37.6857 68.7914 40.4157 67.6605 43.0939C66.8077 41.4397 65.9174 39.805 64.9905 38.1912C64.0566 36.5819 63.0863 34.994 62.0805 33.4287V33.4294ZM21.2738 35.9352C22.4722 39.8007 24.0345 43.8507 25.9463 47.9982C24.0338 52.1472 22.4737 56.1987 21.2738 60.0642C19.5075 59.5654 17.8162 59.0337 16.2787 58.4472C12.2895 56.9247 9.13575 55.1187 7.09275 53.2737C5.0505 51.4302 4.173 49.6812 4.173 47.9989C4.173 46.3174 5.0505 44.5699 7.09275 42.7264C9.13575 40.8814 12.2902 39.0762 16.2787 37.5537C17.8162 36.9664 19.5075 36.4339 21.2738 35.9344V35.9352ZM74.7262 35.9352C76.4932 36.4347 78.1852 36.9672 79.7213 37.5552C83.7113 39.0777 86.865 40.8822 88.908 42.7264C90.9502 44.5714 91.8277 46.3189 91.8277 47.9997C91.8277 49.6819 90.9502 51.4309 88.908 53.2744C86.865 55.1194 83.7105 56.9239 79.722 58.4472C78.1845 59.0337 76.4918 59.5647 74.7255 60.0642C73.527 56.1994 71.9655 52.1494 70.0553 48.0012C71.967 43.8522 73.527 39.8014 74.7262 35.9352ZM48 39.4437C45.7309 39.4441 43.5549 40.3456 41.9504 41.9501C40.346 43.5546 39.4444 45.7306 39.444 47.9997C39.4444 50.2689 40.3461 52.445 41.9507 54.0495C43.5553 55.654 45.7315 56.5555 48.0007 56.5557C50.2698 56.5553 52.4458 55.6537 54.0503 54.0492C55.6548 52.4448 56.5564 50.2687 56.5567 47.9997C56.5564 45.7305 55.6547 43.5543 54.05 41.9499C52.4454 40.3454 50.2692 39.4439 48 39.4437ZM67.6605 52.9069C68.7908 55.5852 69.7944 58.3153 70.668 61.0879C67.977 61.6879 65.1105 62.1912 62.082 62.5729C63.0871 61.0068 64.0566 59.4182 64.9897 57.8082C65.9166 56.1948 66.8076 54.5606 67.6605 52.9069ZM28.3402 52.9084C29.1931 54.5616 30.0834 56.1953 31.0103 57.8082C31.9445 59.4178 32.9147 61.0062 33.9202 62.5722C31.0355 62.2126 28.1694 61.7173 25.3313 61.0879C26.2053 58.3157 27.2094 55.5862 28.3402 52.9084ZM24.189 65.1147C28.1355 66.0087 32.424 66.6799 36.9728 67.0992C39.6097 70.8289 42.3368 74.2069 45.0847 77.1792C43.7692 78.4579 42.4635 79.6579 41.187 80.6967C37.8735 83.3892 34.7318 85.2192 32.1135 86.0667C29.496 86.9127 27.5422 86.7964 26.0857 85.9557C24.6292 85.1142 23.5545 83.4807 22.9792 80.7904C22.4032 78.0994 22.4175 74.4657 23.0933 70.2484C23.3535 68.6247 23.7382 66.8937 24.189 65.1147ZM71.8102 65.1147C72.2603 66.8937 72.6472 68.6247 72.9075 70.2484C73.5825 74.4657 73.5975 78.0994 73.0215 80.7904C72.4463 83.4814 71.37 85.1157 69.9135 85.9579C68.457 86.7979 66.504 86.9127 63.8857 86.0652C61.2675 85.2177 58.1287 83.3877 54.8152 80.6952C53.5395 79.6579 52.2323 78.4579 50.9175 77.1777C53.6655 74.2077 56.391 70.8282 59.028 67.0992C63.5753 66.6799 67.863 66.0087 71.8102 65.1147ZM42.42 67.4787C44.279 67.5673 46.1397 67.6138 48.0007 67.6182C49.8621 67.6138 51.723 67.5673 53.5823 67.4787C51.828 69.7976 49.9654 72.0326 48.0007 74.1762C46.0366 72.0325 44.1738 69.7976 42.42 67.4787Z" fill="#FF4B00"/>
</svg>
