<svg width="96" height="96" viewBox="0 0 96 96" fill="none" xmlns="http://www.w3.org/2000/svg">
<path d="M43.5458 0.00494107C42.8892 -0.0239973 42.2353 0.105824 41.6396 0.383396C41.0438 0.660969 40.5238 1.07811 40.1236 1.59944L3.10283 48.2119C-1.26442 53.7109 2.65508 61.8229 9.67508 61.8229H47.9101L48.3218 91.7209C48.3218 94.4434 50.2628 95.9989 52.5998 95.9989C53.7668 95.9989 54.9331 95.6059 55.7108 94.4389L92.6963 47.7882C97.3636 42.3432 93.4741 34.1772 86.4661 34.1772H47.8051L47.6071 4.14344C47.5718 1.67744 45.6121 0.0911911 43.5503 0.00494107H43.5458ZM51.4411 38.0659H86.4706C88.4153 38.0659 89.5816 38.8474 90.3601 40.7922C91.1378 42.3477 90.7486 44.2924 89.9701 45.4587L52.9973 92.1019H52.6006C52.6006 92.1019 52.2113 92.1019 52.2113 91.7134L51.4381 38.0622L51.4411 38.0659Z" fill="#FF4B00"/>
</svg>
