<svg width="96" height="96" viewBox="0 0 96 96" fill="none" xmlns="http://www.w3.org/2000/svg">
<path d="M1.5 47.9326V94.8076H95.25V1.05762H1.5V47.9326ZM77.0475 44.1826C79.2929 44.7037 81.3337 45.8781 82.9125 47.5576C83.7816 48.4625 84.5372 49.4699 85.1625 50.5576C85.1625 50.6776 81.1125 53.4151 78.645 54.9451C78.555 55.0051 78.195 54.6151 77.7975 54.0226C77.3471 53.2454 76.707 52.5949 75.9372 52.1319C75.1673 51.669 74.2927 51.4086 73.395 51.3751C70.5525 51.1801 68.7225 52.6726 68.7375 55.1251C68.714 55.7357 68.8538 56.3415 69.1425 56.8801C69.765 58.1776 70.9275 58.9501 74.5725 60.5251C81.285 63.4126 84.1575 65.3176 85.9425 68.0251C87.9375 71.0251 88.38 75.8701 87.03 79.4551C85.53 83.3551 81.855 86.0026 76.6575 86.8801C74.2836 87.152 71.8851 87.1268 69.5175 86.8051C65.9041 86.2189 62.5709 84.4985 60 81.8926C59.1375 80.9401 57.4575 78.4576 57.5625 78.2776C57.8363 78.0744 58.1246 77.8914 58.425 77.7301L61.875 75.7501L64.5675 74.1901L65.13 75.0226C66.0793 76.3806 67.2874 77.5377 68.685 78.4276C71.685 80.0026 75.78 79.7851 77.805 77.9626C78.4849 77.2948 78.909 76.4097 79.0036 75.4613C79.0982 74.513 78.8571 73.5615 78.3225 72.7726C77.5725 71.7301 76.0725 70.8526 71.88 69.0226C67.0425 66.9376 64.9575 65.6476 63.0525 63.5926C61.8633 62.2365 60.9852 60.6366 60.48 58.9051C60.1032 56.927 60.0474 54.901 60.315 52.9051C61.3125 48.2326 64.815 44.9701 69.93 44.0026C72.2988 43.7095 74.6983 43.7753 77.0475 44.1976V44.1826ZM55.0425 48.1126V51.9526H42.87V86.6251H34.2375V51.9451H22.035V48.1951C22.0022 46.9042 22.0373 45.6124 22.14 44.3251C22.185 44.2651 29.64 44.2351 38.64 44.2501H54.9975L55.0425 48.1126Z" fill="#D5D5D5"/>
</svg>
